<?xml version="1.0" standalone="no"?>
<!DOCTYPE svg PUBLIC "-//W3C//DTD SVG 20010904//EN"
 "http://www.w3.org/TR/2001/REC-SVG-20010904/DTD/svg10.dtd">
<svg version="1.0" xmlns="http://www.w3.org/2000/svg"
 width="1024.000000pt" height="1024.000000pt" viewBox="0 0 1024.000000 1024.000000"
 preserveAspectRatio="xMidYMid meet">

<g transform="translate(0.000000,1024.000000) scale(0.100000,-0.100000)"
fill="#000000" stroke="none">
<path d="M2471 6290 c-160 -23 -285 -84 -385 -190 -104 -111 -147 -224 -145
-388 1 -164 52 -287 163 -388 83 -76 182 -123 416 -198 218 -70 284 -102 318
-158 42 -68 38 -162 -10 -230 -10 -15 -44 -39 -75 -55 -50 -24 -69 -27 -148
-27 -62 0 -107 5 -144 18 -95 33 -174 126 -187 219 l-7 47 -36 -5 c-50 -7
-342 -45 -347 -45 -8 0 -3 -47 11 -115 44 -209 201 -377 415 -444 99 -31 221
-45 330 -37 394 25 649 254 650 583 0 160 -46 271 -159 383 -98 97 -183 140
-438 218 -279 86 -334 125 -341 246 -5 80 25 139 91 180 85 52 243 45 327 -15
50 -37 76 -78 91 -146 7 -29 13 -53 13 -53 1 0 81 16 180 34 98 19 183 39 189
45 16 16 -10 127 -50 210 -68 142 -212 253 -383 294 -82 20 -255 29 -339 17z"/>
<path d="M4037 6253 c-3 -10 -28 -88 -55 -173 -75 -230 -293 -912 -377 -1175
-94 -296 -172 -535 -180 -558 -7 -16 5 -17 201 -15 l208 3 48 160 c26 88 55
184 64 213 l15 52 309 0 309 0 25 -82 c14 -46 43 -141 64 -213 l39 -130 202
-3 c110 -1 201 0 201 2 0 7 -131 428 -240 771 -54 171 -119 375 -144 455 -25
80 -85 271 -134 425 l-88 280 -231 3 c-213 2 -231 1 -236 -15z m343 -797 c55
-190 100 -348 100 -351 0 -3 -95 -5 -211 -5 -196 0 -210 1 -205 18 3 9 48 166
102 347 97 333 102 350 110 342 3 -2 49 -160 104 -351z"/>
<path d="M5751 6228 c-20 -70 -586 -1854 -598 -1884 -5 -12 22 -14 202 -12
l208 3 61 213 61 212 310 0 310 0 64 -215 64 -215 202 0 203 0 -50 158 c-27
86 -99 315 -159 507 -61 193 -135 429 -166 525 -30 96 -64 204 -75 240 -11 36
-44 139 -73 230 -29 91 -61 191 -70 223 l-16 57 -233 0 -233 0 -12 -42z m354
-768 c54 -184 100 -341 102 -347 4 -10 -42 -13 -209 -13 l-215 0 106 355 c58
195 108 352 111 347 4 -4 51 -158 105 -342z"/>
<path d="M7406 5674 c-104 -25 -202 -79 -275 -153 -117 -117 -174 -236 -194
-409 -43 -369 182 -710 512 -777 69 -14 131 -16 409 -12 351 5 375 8 480 61
74 37 138 104 175 184 31 65 32 72 32 197 0 124 -1 133 -30 189 -39 77 -99
137 -171 174 -66 33 -98 41 -165 44 l-47 1 -22 76 c-12 42 -36 103 -53 136
-40 74 -164 201 -234 238 -116 61 -287 82 -417 51z"/>
</g>
</svg>
